<mxfile host="app.diagrams.net" modified="2023-05-03T12:24:27.550Z" agent="Mozilla/5.0 (Windows NT 10.0; Win64; x64) AppleWebKit/537.36 (KHTML, like Gecko) Chrome/112.0.0.0 Safari/537.36" etag="SHXd-tDqXH-Dxyf4S4mG" version="21.2.3" type="device">
  <diagram name="Страница 1" id="sUOCicbCP5fgKXlmVEN9">
    <mxGraphModel dx="1956" dy="860" grid="1" gridSize="10" guides="1" tooltips="1" connect="1" arrows="1" fold="1" page="1" pageScale="1" pageWidth="827" pageHeight="1169" math="0" shadow="0">
      <root>
        <mxCell id="0" />
        <mxCell id="1" parent="0" />
        <mxCell id="hOCbavzWkbvk_ivOp2L--1" value="" style="rounded=0;whiteSpace=wrap;html=1;" vertex="1" parent="1">
          <mxGeometry width="1610" height="1110" as="geometry" />
        </mxCell>
        <mxCell id="WrfFz0573ABjF3Jb-EZX-1" value="Нагрузка" style="rounded=1;whiteSpace=wrap;html=1;fillColor=#d5e8d4;strokeColor=#82b366;" parent="1" vertex="1">
          <mxGeometry x="250" y="510" width="120" height="60" as="geometry" />
        </mxCell>
        <mxCell id="WrfFz0573ABjF3Jb-EZX-2" value="Группа" style="rounded=1;whiteSpace=wrap;html=1;fillColor=#d5e8d4;strokeColor=#82b366;" parent="1" vertex="1">
          <mxGeometry x="747" y="510" width="120" height="60" as="geometry" />
        </mxCell>
        <mxCell id="WrfFz0573ABjF3Jb-EZX-3" value="Преподаватель" style="rounded=1;whiteSpace=wrap;html=1;fillColor=#d5e8d4;strokeColor=#82b366;" parent="1" vertex="1">
          <mxGeometry x="250" y="870" width="120" height="60" as="geometry" />
        </mxCell>
        <mxCell id="WrfFz0573ABjF3Jb-EZX-4" value="Аудитория" style="rounded=1;whiteSpace=wrap;html=1;fillColor=#d5e8d4;strokeColor=#82b366;" parent="1" vertex="1">
          <mxGeometry x="250" y="210" width="120" height="60" as="geometry" />
        </mxCell>
        <mxCell id="WrfFz0573ABjF3Jb-EZX-5" value="Пожелания" style="rounded=1;whiteSpace=wrap;html=1;fillColor=#d5e8d4;strokeColor=#82b366;" parent="1" vertex="1">
          <mxGeometry x="1250" y="510" width="120" height="60" as="geometry" />
        </mxCell>
        <mxCell id="WrfFz0573ABjF3Jb-EZX-6" value="Идентификатор" style="ellipse;whiteSpace=wrap;html=1;" parent="1" vertex="1">
          <mxGeometry x="597" y="680" width="120" height="60" as="geometry" />
        </mxCell>
        <mxCell id="r781xFQi-C9u_piHX0SA-1" value="Количество студентов в группе" style="ellipse;whiteSpace=wrap;html=1;" parent="1" vertex="1">
          <mxGeometry x="747" y="340" width="120" height="60" as="geometry" />
        </mxCell>
        <mxCell id="r781xFQi-C9u_piHX0SA-8" value="Причина" style="ellipse;whiteSpace=wrap;html=1;" parent="1" vertex="1">
          <mxGeometry x="1423" y="550" width="120" height="60" as="geometry" />
        </mxCell>
        <mxCell id="r781xFQi-C9u_piHX0SA-9" value="Неделя" style="ellipse;whiteSpace=wrap;html=1;" parent="1" vertex="1">
          <mxGeometry x="1423" y="630" width="120" height="60" as="geometry" />
        </mxCell>
        <mxCell id="r781xFQi-C9u_piHX0SA-10" value="Пара" style="ellipse;whiteSpace=wrap;html=1;" parent="1" vertex="1">
          <mxGeometry x="1423" y="470" width="120" height="60" as="geometry" />
        </mxCell>
        <mxCell id="r781xFQi-C9u_piHX0SA-11" value="День" style="ellipse;whiteSpace=wrap;html=1;" parent="1" vertex="1">
          <mxGeometry x="1423" y="390" width="120" height="60" as="geometry" />
        </mxCell>
        <mxCell id="r781xFQi-C9u_piHX0SA-12" value="Полное имя" style="ellipse;whiteSpace=wrap;html=1;" parent="1" vertex="1">
          <mxGeometry x="110" y="990" width="120" height="60" as="geometry" />
        </mxCell>
        <mxCell id="r781xFQi-C9u_piHX0SA-13" value="Имя" style="ellipse;whiteSpace=wrap;html=1;" parent="1" vertex="1">
          <mxGeometry x="250" y="990" width="120" height="60" as="geometry" />
        </mxCell>
        <mxCell id="r781xFQi-C9u_piHX0SA-14" value="Идентификатор" style="ellipse;whiteSpace=wrap;html=1;" parent="1" vertex="1">
          <mxGeometry x="390" y="990" width="120" height="60" as="geometry" />
        </mxCell>
        <mxCell id="r781xFQi-C9u_piHX0SA-15" value="Максимальная вместимость" style="ellipse;whiteSpace=wrap;html=1;" parent="1" vertex="1">
          <mxGeometry x="320" y="20" width="120" height="60" as="geometry" />
        </mxCell>
        <mxCell id="r781xFQi-C9u_piHX0SA-16" value="Тип" style="ellipse;whiteSpace=wrap;html=1;" parent="1" vertex="1">
          <mxGeometry x="390" y="90" width="120" height="60" as="geometry" />
        </mxCell>
        <mxCell id="r781xFQi-C9u_piHX0SA-17" value="Корпус" style="ellipse;whiteSpace=wrap;html=1;" parent="1" vertex="1">
          <mxGeometry x="250" y="90" width="120" height="60" as="geometry" />
        </mxCell>
        <mxCell id="r781xFQi-C9u_piHX0SA-18" value="Название" style="ellipse;whiteSpace=wrap;html=1;" parent="1" vertex="1">
          <mxGeometry x="180" y="20" width="120" height="60" as="geometry" />
        </mxCell>
        <mxCell id="r781xFQi-C9u_piHX0SA-19" value="Идентификатор" style="ellipse;whiteSpace=wrap;html=1;" parent="1" vertex="1">
          <mxGeometry x="110" y="90" width="120" height="60" as="geometry" />
        </mxCell>
        <mxCell id="r781xFQi-C9u_piHX0SA-20" value="Диспетчер" style="ellipse;whiteSpace=wrap;html=1;" parent="1" vertex="1">
          <mxGeometry x="827" y="410" width="120" height="60" as="geometry" />
        </mxCell>
        <mxCell id="r781xFQi-C9u_piHX0SA-21" value="Название" style="ellipse;whiteSpace=wrap;html=1;" parent="1" vertex="1">
          <mxGeometry x="597" y="340" width="120" height="60" as="geometry" />
        </mxCell>
        <mxCell id="r781xFQi-C9u_piHX0SA-22" value="Курс" style="ellipse;whiteSpace=wrap;html=1;" parent="1" vertex="1">
          <mxGeometry x="897" y="340" width="120" height="60" as="geometry" />
        </mxCell>
        <mxCell id="r781xFQi-C9u_piHX0SA-23" value="Факультет" style="ellipse;whiteSpace=wrap;html=1;" parent="1" vertex="1">
          <mxGeometry x="897" y="680" width="120" height="60" as="geometry" />
        </mxCell>
        <mxCell id="r781xFQi-C9u_piHX0SA-24" value="Форма обучения" style="ellipse;whiteSpace=wrap;html=1;" parent="1" vertex="1">
          <mxGeometry x="747" y="680" width="120" height="60" as="geometry" />
        </mxCell>
        <mxCell id="r781xFQi-C9u_piHX0SA-25" value="Смена" style="ellipse;whiteSpace=wrap;html=1;" parent="1" vertex="1">
          <mxGeometry x="667" y="410" width="120" height="60" as="geometry" />
        </mxCell>
        <mxCell id="r781xFQi-C9u_piHX0SA-44" value="Способ проведения занятия" style="ellipse;whiteSpace=wrap;html=1;" parent="1" vertex="1">
          <mxGeometry x="40" y="710" width="120" height="60" as="geometry" />
        </mxCell>
        <mxCell id="r781xFQi-C9u_piHX0SA-46" value="Дисциплина" style="ellipse;whiteSpace=wrap;html=1;" parent="1" vertex="1">
          <mxGeometry x="40" y="630" width="120" height="60" as="geometry" />
        </mxCell>
        <mxCell id="r781xFQi-C9u_piHX0SA-48" value="Количество часов" style="ellipse;whiteSpace=wrap;html=1;" parent="1" vertex="1">
          <mxGeometry x="40" y="470" width="120" height="60" as="geometry" />
        </mxCell>
        <mxCell id="r781xFQi-C9u_piHX0SA-49" value="Идентификатор" style="ellipse;whiteSpace=wrap;html=1;" parent="1" vertex="1">
          <mxGeometry x="40" y="390" width="120" height="60" as="geometry" />
        </mxCell>
        <mxCell id="r781xFQi-C9u_piHX0SA-55" value="Тип занятия" style="ellipse;whiteSpace=wrap;html=1;" parent="1" vertex="1">
          <mxGeometry x="40" y="550" width="120" height="60" as="geometry" />
        </mxCell>
        <mxCell id="r781xFQi-C9u_piHX0SA-75" value="" style="endArrow=doubleBlock;startArrow=none;html=1;rounded=0;entryX=0.5;entryY=1;entryDx=0;entryDy=0;exitX=0.5;exitY=0;exitDx=0;exitDy=0;startFill=0;endFill=1;" parent="1" source="r781xFQi-C9u_piHX0SA-146" target="WrfFz0573ABjF3Jb-EZX-4" edge="1">
          <mxGeometry width="50" height="50" relative="1" as="geometry">
            <mxPoint x="350" y="400" as="sourcePoint" />
            <mxPoint x="400" y="350" as="targetPoint" />
          </mxGeometry>
        </mxCell>
        <mxCell id="r781xFQi-C9u_piHX0SA-76" value="" style="endArrow=doubleBlock;startArrow=none;html=1;rounded=0;entryX=0.5;entryY=1;entryDx=0;entryDy=0;exitX=0.5;exitY=0;exitDx=0;exitDy=0;startFill=0;endFill=1;" parent="1" source="r781xFQi-C9u_piHX0SA-148" target="WrfFz0573ABjF3Jb-EZX-1" edge="1">
          <mxGeometry width="50" height="50" relative="1" as="geometry">
            <mxPoint x="350" y="800" as="sourcePoint" />
            <mxPoint x="400" y="750" as="targetPoint" />
          </mxGeometry>
        </mxCell>
        <mxCell id="r781xFQi-C9u_piHX0SA-88" value="" style="endArrow=doubleBlock;startArrow=none;html=1;rounded=0;entryX=0;entryY=0.5;entryDx=0;entryDy=0;exitX=1;exitY=0.5;exitDx=0;exitDy=0;startFill=0;endFill=1;" parent="1" source="r781xFQi-C9u_piHX0SA-144" target="WrfFz0573ABjF3Jb-EZX-2" edge="1">
          <mxGeometry width="50" height="50" relative="1" as="geometry">
            <mxPoint x="507" y="570" as="sourcePoint" />
            <mxPoint x="557" y="520" as="targetPoint" />
          </mxGeometry>
        </mxCell>
        <mxCell id="r781xFQi-C9u_piHX0SA-89" value="" style="endArrow=doubleBlock;startArrow=none;html=1;rounded=0;entryX=0;entryY=0.5;entryDx=0;entryDy=0;exitX=1;exitY=0.5;exitDx=0;exitDy=0;endFill=1;startFill=0;" parent="1" source="r781xFQi-C9u_piHX0SA-140" target="WrfFz0573ABjF3Jb-EZX-5" edge="1">
          <mxGeometry width="50" height="50" relative="1" as="geometry">
            <mxPoint x="1200" y="540" as="sourcePoint" />
            <mxPoint x="1040" y="600" as="targetPoint" />
          </mxGeometry>
        </mxCell>
        <mxCell id="r781xFQi-C9u_piHX0SA-90" value="" style="endArrow=doubleBlock;startArrow=none;html=1;rounded=0;entryX=0.5;entryY=0;entryDx=0;entryDy=0;exitX=1;exitY=0.5;exitDx=0;exitDy=0;endFill=1;startFill=0;" parent="1" source="r781xFQi-C9u_piHX0SA-141" target="WrfFz0573ABjF3Jb-EZX-5" edge="1">
          <mxGeometry width="50" height="50" relative="1" as="geometry">
            <mxPoint x="1115" y="240" as="sourcePoint" />
            <mxPoint x="1070" y="570" as="targetPoint" />
            <Array as="points">
              <mxPoint x="1310" y="240" />
            </Array>
          </mxGeometry>
        </mxCell>
        <mxCell id="r781xFQi-C9u_piHX0SA-91" value="" style="endArrow=doubleBlock;startArrow=none;html=1;rounded=0;entryX=0.5;entryY=1;entryDx=0;entryDy=0;exitX=1;exitY=0.5;exitDx=0;exitDy=0;startFill=0;endFill=1;" parent="1" source="r781xFQi-C9u_piHX0SA-138" target="WrfFz0573ABjF3Jb-EZX-5" edge="1">
          <mxGeometry width="50" height="50" relative="1" as="geometry">
            <mxPoint x="1090" y="900" as="sourcePoint" />
            <mxPoint x="1070" y="1070" as="targetPoint" />
            <Array as="points">
              <mxPoint x="1310" y="900" />
            </Array>
          </mxGeometry>
        </mxCell>
        <mxCell id="r781xFQi-C9u_piHX0SA-98" value="" style="endArrow=none;html=1;rounded=0;entryX=0.5;entryY=1;entryDx=0;entryDy=0;" parent="1" target="r781xFQi-C9u_piHX0SA-17" edge="1">
          <mxGeometry width="50" height="50" relative="1" as="geometry">
            <mxPoint x="310" y="210" as="sourcePoint" />
            <mxPoint x="360" y="180" as="targetPoint" />
          </mxGeometry>
        </mxCell>
        <mxCell id="r781xFQi-C9u_piHX0SA-99" value="" style="endArrow=none;html=1;rounded=0;" parent="1" edge="1">
          <mxGeometry width="50" height="50" relative="1" as="geometry">
            <mxPoint x="450" y="180" as="sourcePoint" />
            <mxPoint x="170" y="180" as="targetPoint" />
          </mxGeometry>
        </mxCell>
        <mxCell id="r781xFQi-C9u_piHX0SA-100" value="" style="endArrow=none;html=1;rounded=0;entryX=0.5;entryY=1;entryDx=0;entryDy=0;" parent="1" target="r781xFQi-C9u_piHX0SA-15" edge="1">
          <mxGeometry width="50" height="50" relative="1" as="geometry">
            <mxPoint x="380" y="180" as="sourcePoint" />
            <mxPoint x="360" y="180" as="targetPoint" />
          </mxGeometry>
        </mxCell>
        <mxCell id="r781xFQi-C9u_piHX0SA-101" value="" style="endArrow=none;html=1;rounded=0;entryX=0.5;entryY=1;entryDx=0;entryDy=0;" parent="1" target="r781xFQi-C9u_piHX0SA-18" edge="1">
          <mxGeometry width="50" height="50" relative="1" as="geometry">
            <mxPoint x="240" y="180" as="sourcePoint" />
            <mxPoint x="360" y="180" as="targetPoint" />
          </mxGeometry>
        </mxCell>
        <mxCell id="r781xFQi-C9u_piHX0SA-102" value="" style="endArrow=none;html=1;rounded=0;entryX=0.5;entryY=1;entryDx=0;entryDy=0;" parent="1" target="r781xFQi-C9u_piHX0SA-16" edge="1">
          <mxGeometry width="50" height="50" relative="1" as="geometry">
            <mxPoint x="450" y="180" as="sourcePoint" />
            <mxPoint x="360" y="180" as="targetPoint" />
          </mxGeometry>
        </mxCell>
        <mxCell id="r781xFQi-C9u_piHX0SA-103" value="" style="endArrow=none;html=1;rounded=0;entryX=0.5;entryY=1;entryDx=0;entryDy=0;" parent="1" target="r781xFQi-C9u_piHX0SA-19" edge="1">
          <mxGeometry width="50" height="50" relative="1" as="geometry">
            <mxPoint x="170" y="180" as="sourcePoint" />
            <mxPoint x="360" y="180" as="targetPoint" />
          </mxGeometry>
        </mxCell>
        <mxCell id="r781xFQi-C9u_piHX0SA-104" value="" style="endArrow=none;html=1;rounded=0;" parent="1" edge="1">
          <mxGeometry width="50" height="50" relative="1" as="geometry">
            <mxPoint x="190" y="740" as="sourcePoint" />
            <mxPoint x="190" y="260" as="targetPoint" />
          </mxGeometry>
        </mxCell>
        <mxCell id="r781xFQi-C9u_piHX0SA-105" value="" style="endArrow=none;html=1;rounded=0;entryX=0;entryY=0.5;entryDx=0;entryDy=0;" parent="1" target="WrfFz0573ABjF3Jb-EZX-1" edge="1">
          <mxGeometry width="50" height="50" relative="1" as="geometry">
            <mxPoint x="190" y="540" as="sourcePoint" />
            <mxPoint x="250" y="470" as="targetPoint" />
          </mxGeometry>
        </mxCell>
        <mxCell id="r781xFQi-C9u_piHX0SA-113" value="" style="endArrow=none;html=1;rounded=0;exitX=1;exitY=0.5;exitDx=0;exitDy=0;" parent="1" source="r781xFQi-C9u_piHX0SA-49" edge="1">
          <mxGeometry width="50" height="50" relative="1" as="geometry">
            <mxPoint x="260" y="520" as="sourcePoint" />
            <mxPoint x="190" y="420" as="targetPoint" />
          </mxGeometry>
        </mxCell>
        <mxCell id="r781xFQi-C9u_piHX0SA-114" value="" style="endArrow=none;html=1;rounded=0;exitX=1;exitY=0.5;exitDx=0;exitDy=0;" parent="1" source="r781xFQi-C9u_piHX0SA-48" edge="1">
          <mxGeometry width="50" height="50" relative="1" as="geometry">
            <mxPoint x="260" y="520" as="sourcePoint" />
            <mxPoint x="190" y="500" as="targetPoint" />
          </mxGeometry>
        </mxCell>
        <mxCell id="r781xFQi-C9u_piHX0SA-115" value="" style="endArrow=none;html=1;rounded=0;exitX=1;exitY=0.5;exitDx=0;exitDy=0;" parent="1" source="r781xFQi-C9u_piHX0SA-55" edge="1">
          <mxGeometry width="50" height="50" relative="1" as="geometry">
            <mxPoint x="260" y="520" as="sourcePoint" />
            <mxPoint x="190" y="580" as="targetPoint" />
          </mxGeometry>
        </mxCell>
        <mxCell id="r781xFQi-C9u_piHX0SA-116" value="" style="endArrow=none;html=1;rounded=0;exitX=1;exitY=0.5;exitDx=0;exitDy=0;" parent="1" source="r781xFQi-C9u_piHX0SA-46" edge="1">
          <mxGeometry width="50" height="50" relative="1" as="geometry">
            <mxPoint x="160" y="660" as="sourcePoint" />
            <mxPoint x="190" y="660" as="targetPoint" />
          </mxGeometry>
        </mxCell>
        <mxCell id="r781xFQi-C9u_piHX0SA-117" value="" style="endArrow=none;html=1;rounded=0;exitX=1;exitY=0.5;exitDx=0;exitDy=0;" parent="1" source="r781xFQi-C9u_piHX0SA-44" edge="1">
          <mxGeometry width="50" height="50" relative="1" as="geometry">
            <mxPoint x="160" y="730" as="sourcePoint" />
            <mxPoint x="190" y="740" as="targetPoint" />
          </mxGeometry>
        </mxCell>
        <mxCell id="r781xFQi-C9u_piHX0SA-118" value="" style="endArrow=none;html=1;rounded=0;" parent="1" edge="1">
          <mxGeometry width="50" height="50" relative="1" as="geometry">
            <mxPoint x="657" y="490" as="sourcePoint" />
            <mxPoint x="957" y="490" as="targetPoint" />
          </mxGeometry>
        </mxCell>
        <mxCell id="r781xFQi-C9u_piHX0SA-119" value="" style="endArrow=none;html=1;rounded=0;entryX=0.5;entryY=1;entryDx=0;entryDy=0;exitX=0.5;exitY=0;exitDx=0;exitDy=0;" parent="1" source="WrfFz0573ABjF3Jb-EZX-2" target="r781xFQi-C9u_piHX0SA-1" edge="1">
          <mxGeometry width="50" height="50" relative="1" as="geometry">
            <mxPoint x="847" y="600" as="sourcePoint" />
            <mxPoint x="897" y="550" as="targetPoint" />
          </mxGeometry>
        </mxCell>
        <mxCell id="r781xFQi-C9u_piHX0SA-120" value="" style="endArrow=none;html=1;rounded=0;entryX=0.5;entryY=1;entryDx=0;entryDy=0;" parent="1" target="r781xFQi-C9u_piHX0SA-22" edge="1">
          <mxGeometry width="50" height="50" relative="1" as="geometry">
            <mxPoint x="957" y="490" as="sourcePoint" />
            <mxPoint x="897" y="550" as="targetPoint" />
          </mxGeometry>
        </mxCell>
        <mxCell id="r781xFQi-C9u_piHX0SA-121" value="" style="endArrow=none;html=1;rounded=0;exitX=0.5;exitY=1;exitDx=0;exitDy=0;" parent="1" source="r781xFQi-C9u_piHX0SA-21" edge="1">
          <mxGeometry width="50" height="50" relative="1" as="geometry">
            <mxPoint x="847" y="600" as="sourcePoint" />
            <mxPoint x="657" y="490" as="targetPoint" />
          </mxGeometry>
        </mxCell>
        <mxCell id="r781xFQi-C9u_piHX0SA-122" value="" style="endArrow=none;html=1;rounded=0;entryX=0.5;entryY=1;entryDx=0;entryDy=0;" parent="1" target="r781xFQi-C9u_piHX0SA-20" edge="1">
          <mxGeometry width="50" height="50" relative="1" as="geometry">
            <mxPoint x="887" y="490" as="sourcePoint" />
            <mxPoint x="897" y="550" as="targetPoint" />
          </mxGeometry>
        </mxCell>
        <mxCell id="r781xFQi-C9u_piHX0SA-123" value="" style="endArrow=none;html=1;rounded=0;entryX=0.5;entryY=1;entryDx=0;entryDy=0;" parent="1" target="r781xFQi-C9u_piHX0SA-25" edge="1">
          <mxGeometry width="50" height="50" relative="1" as="geometry">
            <mxPoint x="727" y="490" as="sourcePoint" />
            <mxPoint x="897" y="550" as="targetPoint" />
          </mxGeometry>
        </mxCell>
        <mxCell id="r781xFQi-C9u_piHX0SA-124" value="" style="endArrow=none;html=1;rounded=0;" parent="1" edge="1">
          <mxGeometry width="50" height="50" relative="1" as="geometry">
            <mxPoint x="657" y="590" as="sourcePoint" />
            <mxPoint x="957" y="590" as="targetPoint" />
          </mxGeometry>
        </mxCell>
        <mxCell id="r781xFQi-C9u_piHX0SA-125" value="" style="endArrow=none;html=1;rounded=0;entryX=0.5;entryY=1;entryDx=0;entryDy=0;exitX=0.5;exitY=0;exitDx=0;exitDy=0;" parent="1" source="r781xFQi-C9u_piHX0SA-24" target="WrfFz0573ABjF3Jb-EZX-2" edge="1">
          <mxGeometry width="50" height="50" relative="1" as="geometry">
            <mxPoint x="847" y="600" as="sourcePoint" />
            <mxPoint x="897" y="550" as="targetPoint" />
          </mxGeometry>
        </mxCell>
        <mxCell id="r781xFQi-C9u_piHX0SA-126" value="" style="endArrow=none;html=1;rounded=0;exitX=0.5;exitY=0;exitDx=0;exitDy=0;" parent="1" source="r781xFQi-C9u_piHX0SA-23" edge="1">
          <mxGeometry width="50" height="50" relative="1" as="geometry">
            <mxPoint x="847" y="600" as="sourcePoint" />
            <mxPoint x="957" y="590" as="targetPoint" />
          </mxGeometry>
        </mxCell>
        <mxCell id="r781xFQi-C9u_piHX0SA-127" value="" style="endArrow=none;html=1;rounded=0;entryX=0.5;entryY=0;entryDx=0;entryDy=0;" parent="1" target="WrfFz0573ABjF3Jb-EZX-6" edge="1">
          <mxGeometry width="50" height="50" relative="1" as="geometry">
            <mxPoint x="657" y="590" as="sourcePoint" />
            <mxPoint x="897" y="550" as="targetPoint" />
          </mxGeometry>
        </mxCell>
        <mxCell id="r781xFQi-C9u_piHX0SA-128" value="" style="endArrow=none;html=1;rounded=0;" parent="1" edge="1">
          <mxGeometry width="50" height="50" relative="1" as="geometry">
            <mxPoint x="170" y="960" as="sourcePoint" />
            <mxPoint x="450" y="960" as="targetPoint" />
          </mxGeometry>
        </mxCell>
        <mxCell id="r781xFQi-C9u_piHX0SA-129" value="" style="endArrow=none;html=1;rounded=0;entryX=0.5;entryY=1;entryDx=0;entryDy=0;exitX=0.5;exitY=0;exitDx=0;exitDy=0;" parent="1" source="r781xFQi-C9u_piHX0SA-13" target="WrfFz0573ABjF3Jb-EZX-3" edge="1">
          <mxGeometry width="50" height="50" relative="1" as="geometry">
            <mxPoint x="410" y="1000" as="sourcePoint" />
            <mxPoint x="460" y="950" as="targetPoint" />
          </mxGeometry>
        </mxCell>
        <mxCell id="r781xFQi-C9u_piHX0SA-130" value="" style="endArrow=none;html=1;rounded=0;exitX=0.5;exitY=0;exitDx=0;exitDy=0;" parent="1" source="r781xFQi-C9u_piHX0SA-14" edge="1">
          <mxGeometry width="50" height="50" relative="1" as="geometry">
            <mxPoint x="410" y="1000" as="sourcePoint" />
            <mxPoint x="450" y="960" as="targetPoint" />
          </mxGeometry>
        </mxCell>
        <mxCell id="r781xFQi-C9u_piHX0SA-131" value="" style="endArrow=none;html=1;rounded=0;entryX=0.5;entryY=0;entryDx=0;entryDy=0;" parent="1" target="r781xFQi-C9u_piHX0SA-12" edge="1">
          <mxGeometry width="50" height="50" relative="1" as="geometry">
            <mxPoint x="170" y="960" as="sourcePoint" />
            <mxPoint x="460" y="950" as="targetPoint" />
          </mxGeometry>
        </mxCell>
        <mxCell id="r781xFQi-C9u_piHX0SA-132" value="" style="endArrow=none;html=1;rounded=0;" parent="1" edge="1">
          <mxGeometry width="50" height="50" relative="1" as="geometry">
            <mxPoint x="1390" y="660" as="sourcePoint" />
            <mxPoint x="1390" y="420" as="targetPoint" />
          </mxGeometry>
        </mxCell>
        <mxCell id="r781xFQi-C9u_piHX0SA-133" value="" style="endArrow=none;html=1;rounded=0;entryX=0;entryY=0.5;entryDx=0;entryDy=0;" parent="1" target="r781xFQi-C9u_piHX0SA-11" edge="1">
          <mxGeometry width="50" height="50" relative="1" as="geometry">
            <mxPoint x="1390" y="420" as="sourcePoint" />
            <mxPoint x="1450" y="490" as="targetPoint" />
          </mxGeometry>
        </mxCell>
        <mxCell id="r781xFQi-C9u_piHX0SA-134" value="" style="endArrow=none;html=1;rounded=0;entryX=0;entryY=0.5;entryDx=0;entryDy=0;" parent="1" target="r781xFQi-C9u_piHX0SA-10" edge="1">
          <mxGeometry width="50" height="50" relative="1" as="geometry">
            <mxPoint x="1390" y="500" as="sourcePoint" />
            <mxPoint x="1450" y="490" as="targetPoint" />
          </mxGeometry>
        </mxCell>
        <mxCell id="r781xFQi-C9u_piHX0SA-135" value="" style="endArrow=none;html=1;rounded=0;entryX=0;entryY=0.5;entryDx=0;entryDy=0;" parent="1" target="r781xFQi-C9u_piHX0SA-8" edge="1">
          <mxGeometry width="50" height="50" relative="1" as="geometry">
            <mxPoint x="1390" y="580" as="sourcePoint" />
            <mxPoint x="1420" y="580" as="targetPoint" />
          </mxGeometry>
        </mxCell>
        <mxCell id="r781xFQi-C9u_piHX0SA-136" value="" style="endArrow=none;html=1;rounded=0;entryX=0;entryY=0.5;entryDx=0;entryDy=0;" parent="1" target="r781xFQi-C9u_piHX0SA-9" edge="1">
          <mxGeometry width="50" height="50" relative="1" as="geometry">
            <mxPoint x="1390" y="660" as="sourcePoint" />
            <mxPoint x="1450" y="560" as="targetPoint" />
          </mxGeometry>
        </mxCell>
        <mxCell id="r781xFQi-C9u_piHX0SA-137" value="" style="endArrow=none;html=1;rounded=0;entryX=1;entryY=0.5;entryDx=0;entryDy=0;" parent="1" target="WrfFz0573ABjF3Jb-EZX-5" edge="1">
          <mxGeometry width="50" height="50" relative="1" as="geometry">
            <mxPoint x="1390" y="540" as="sourcePoint" />
            <mxPoint x="1450" y="490" as="targetPoint" />
          </mxGeometry>
        </mxCell>
        <mxCell id="r781xFQi-C9u_piHX0SA-139" value="" style="endArrow=none;startArrow=classic;html=1;rounded=0;entryX=0;entryY=0.5;entryDx=0;entryDy=0;exitX=1;exitY=0.5;exitDx=0;exitDy=0;endFill=0;" parent="1" source="WrfFz0573ABjF3Jb-EZX-3" target="r781xFQi-C9u_piHX0SA-138" edge="1">
          <mxGeometry width="50" height="50" relative="1" as="geometry">
            <mxPoint x="370" y="900" as="sourcePoint" />
            <mxPoint x="1120" y="570" as="targetPoint" />
            <Array as="points" />
          </mxGeometry>
        </mxCell>
        <mxCell id="r781xFQi-C9u_piHX0SA-138" value="Имеет" style="rhombus;whiteSpace=wrap;html=1;" parent="1" vertex="1">
          <mxGeometry x="957" y="860" width="170" height="80" as="geometry" />
        </mxCell>
        <mxCell id="r781xFQi-C9u_piHX0SA-142" value="" style="endArrow=none;startArrow=classic;html=1;rounded=0;entryX=0;entryY=0.5;entryDx=0;entryDy=0;exitX=1;exitY=0.5;exitDx=0;exitDy=0;endFill=0;" parent="1" source="WrfFz0573ABjF3Jb-EZX-4" target="r781xFQi-C9u_piHX0SA-141" edge="1">
          <mxGeometry width="50" height="50" relative="1" as="geometry">
            <mxPoint x="370" y="240" as="sourcePoint" />
            <mxPoint x="1120" y="510" as="targetPoint" />
            <Array as="points" />
          </mxGeometry>
        </mxCell>
        <mxCell id="r781xFQi-C9u_piHX0SA-141" value="Имеет" style="rhombus;whiteSpace=wrap;html=1;" parent="1" vertex="1">
          <mxGeometry x="957" y="200" width="170" height="80" as="geometry" />
        </mxCell>
        <mxCell id="r781xFQi-C9u_piHX0SA-143" value="" style="endArrow=none;startArrow=classic;html=1;rounded=0;entryX=0;entryY=0.5;entryDx=0;entryDy=0;exitX=1;exitY=0.5;exitDx=0;exitDy=0;endFill=0;" parent="1" source="WrfFz0573ABjF3Jb-EZX-2" target="r781xFQi-C9u_piHX0SA-140" edge="1">
          <mxGeometry width="50" height="50" relative="1" as="geometry">
            <mxPoint x="867" y="540" as="sourcePoint" />
            <mxPoint x="1177" y="540" as="targetPoint" />
          </mxGeometry>
        </mxCell>
        <mxCell id="r781xFQi-C9u_piHX0SA-140" value="Имеет" style="rhombus;whiteSpace=wrap;html=1;" parent="1" vertex="1">
          <mxGeometry x="957" y="500" width="170" height="80" as="geometry" />
        </mxCell>
        <mxCell id="r781xFQi-C9u_piHX0SA-145" value="" style="endArrow=none;startArrow=doubleBlock;html=1;rounded=0;entryX=0;entryY=0.5;entryDx=0;entryDy=0;exitX=1;exitY=0.5;exitDx=0;exitDy=0;startFill=1;endFill=0;" parent="1" source="WrfFz0573ABjF3Jb-EZX-1" target="r781xFQi-C9u_piHX0SA-144" edge="1">
          <mxGeometry width="50" height="50" relative="1" as="geometry">
            <mxPoint x="370" y="540" as="sourcePoint" />
            <mxPoint x="630" y="540" as="targetPoint" />
          </mxGeometry>
        </mxCell>
        <mxCell id="r781xFQi-C9u_piHX0SA-144" value="Содержит" style="rhombus;whiteSpace=wrap;html=1;" parent="1" vertex="1">
          <mxGeometry x="480" y="500" width="170" height="80" as="geometry" />
        </mxCell>
        <mxCell id="r781xFQi-C9u_piHX0SA-147" value="" style="endArrow=none;startArrow=doubleBlock;html=1;rounded=0;entryX=0.5;entryY=1;entryDx=0;entryDy=0;exitX=0.5;exitY=0;exitDx=0;exitDy=0;startFill=1;endFill=0;" parent="1" source="WrfFz0573ABjF3Jb-EZX-1" target="r781xFQi-C9u_piHX0SA-146" edge="1">
          <mxGeometry width="50" height="50" relative="1" as="geometry">
            <mxPoint x="310" y="510" as="sourcePoint" />
            <mxPoint x="310" y="270" as="targetPoint" />
          </mxGeometry>
        </mxCell>
        <mxCell id="r781xFQi-C9u_piHX0SA-146" value="Содержит" style="rhombus;whiteSpace=wrap;html=1;" parent="1" vertex="1">
          <mxGeometry x="225" y="350" width="170" height="80" as="geometry" />
        </mxCell>
        <mxCell id="r781xFQi-C9u_piHX0SA-149" value="" style="endArrow=none;startArrow=doubleBlock;html=1;rounded=0;entryX=0.5;entryY=1;entryDx=0;entryDy=0;exitX=0.5;exitY=0;exitDx=0;exitDy=0;endFill=0;startFill=1;" parent="1" source="WrfFz0573ABjF3Jb-EZX-3" target="r781xFQi-C9u_piHX0SA-148" edge="1">
          <mxGeometry width="50" height="50" relative="1" as="geometry">
            <mxPoint x="310" y="870" as="sourcePoint" />
            <mxPoint x="310" y="570" as="targetPoint" />
          </mxGeometry>
        </mxCell>
        <mxCell id="r781xFQi-C9u_piHX0SA-148" value="Содержит" style="rhombus;whiteSpace=wrap;html=1;" parent="1" vertex="1">
          <mxGeometry x="225" y="680" width="170" height="80" as="geometry" />
        </mxCell>
        <mxCell id="r781xFQi-C9u_piHX0SA-150" value="N" style="text;html=1;strokeColor=none;fillColor=none;align=center;verticalAlign=middle;whiteSpace=wrap;rounded=0;" parent="1" vertex="1">
          <mxGeometry x="310" y="270" width="60" height="30" as="geometry" />
        </mxCell>
        <mxCell id="r781xFQi-C9u_piHX0SA-151" value="M" style="text;html=1;strokeColor=none;fillColor=none;align=center;verticalAlign=middle;whiteSpace=wrap;rounded=0;" parent="1" vertex="1">
          <mxGeometry x="310" y="480" width="60" height="30" as="geometry" />
        </mxCell>
        <mxCell id="r781xFQi-C9u_piHX0SA-152" value="M" style="text;html=1;strokeColor=none;fillColor=none;align=center;verticalAlign=middle;whiteSpace=wrap;rounded=0;" parent="1" vertex="1">
          <mxGeometry x="310" y="570" width="60" height="30" as="geometry" />
        </mxCell>
        <mxCell id="r781xFQi-C9u_piHX0SA-153" value="N" style="text;html=1;strokeColor=none;fillColor=none;align=center;verticalAlign=middle;whiteSpace=wrap;rounded=0;" parent="1" vertex="1">
          <mxGeometry x="310" y="840" width="60" height="30" as="geometry" />
        </mxCell>
        <mxCell id="r781xFQi-C9u_piHX0SA-154" value="N" style="text;html=1;strokeColor=none;fillColor=none;align=center;verticalAlign=middle;whiteSpace=wrap;rounded=0;" parent="1" vertex="1">
          <mxGeometry x="687" y="510" width="60" height="30" as="geometry" />
        </mxCell>
        <mxCell id="r781xFQi-C9u_piHX0SA-155" value="M" style="text;html=1;strokeColor=none;fillColor=none;align=center;verticalAlign=middle;whiteSpace=wrap;rounded=0;" parent="1" vertex="1">
          <mxGeometry x="370" y="510" width="60" height="30" as="geometry" />
        </mxCell>
        <mxCell id="r781xFQi-C9u_piHX0SA-156" value="1" style="text;html=1;strokeColor=none;fillColor=none;align=center;verticalAlign=middle;whiteSpace=wrap;rounded=0;" parent="1" vertex="1">
          <mxGeometry x="370" y="210" width="60" height="30" as="geometry" />
        </mxCell>
        <mxCell id="r781xFQi-C9u_piHX0SA-157" value="1" style="text;html=1;strokeColor=none;fillColor=none;align=center;verticalAlign=middle;whiteSpace=wrap;rounded=0;" parent="1" vertex="1">
          <mxGeometry x="867" y="510" width="60" height="30" as="geometry" />
        </mxCell>
        <mxCell id="r781xFQi-C9u_piHX0SA-158" value="1" style="text;html=1;strokeColor=none;fillColor=none;align=center;verticalAlign=middle;whiteSpace=wrap;rounded=0;" parent="1" vertex="1">
          <mxGeometry x="370" y="870" width="60" height="30" as="geometry" />
        </mxCell>
        <mxCell id="r781xFQi-C9u_piHX0SA-159" value="M" style="text;html=1;strokeColor=none;fillColor=none;align=center;verticalAlign=middle;whiteSpace=wrap;rounded=0;" parent="1" vertex="1">
          <mxGeometry x="1250" y="480" width="60" height="30" as="geometry" />
        </mxCell>
        <mxCell id="r781xFQi-C9u_piHX0SA-160" value="M" style="text;html=1;strokeColor=none;fillColor=none;align=center;verticalAlign=middle;whiteSpace=wrap;rounded=0;" parent="1" vertex="1">
          <mxGeometry x="1250" y="570" width="60" height="30" as="geometry" />
        </mxCell>
        <mxCell id="r781xFQi-C9u_piHX0SA-161" value="M" style="text;html=1;strokeColor=none;fillColor=none;align=center;verticalAlign=middle;whiteSpace=wrap;rounded=0;" parent="1" vertex="1">
          <mxGeometry x="1190" y="510" width="60" height="30" as="geometry" />
        </mxCell>
        <mxCell id="r781xFQi-C9u_piHX0SA-162" value="Н" style="text;html=1;strokeColor=none;fillColor=none;align=center;verticalAlign=middle;whiteSpace=wrap;rounded=0;" parent="1" vertex="1">
          <mxGeometry x="250" y="270" width="60" height="30" as="geometry" />
        </mxCell>
        <mxCell id="r781xFQi-C9u_piHX0SA-163" value="О" style="text;html=1;strokeColor=none;fillColor=none;align=center;verticalAlign=middle;whiteSpace=wrap;rounded=0;" parent="1" vertex="1">
          <mxGeometry x="687" y="540" width="60" height="30" as="geometry" />
        </mxCell>
        <mxCell id="r781xFQi-C9u_piHX0SA-164" value="Н" style="text;html=1;strokeColor=none;fillColor=none;align=center;verticalAlign=middle;whiteSpace=wrap;rounded=0;" parent="1" vertex="1">
          <mxGeometry x="250" y="840" width="60" height="30" as="geometry" />
        </mxCell>
        <mxCell id="r781xFQi-C9u_piHX0SA-165" value="О" style="text;html=1;strokeColor=none;fillColor=none;align=center;verticalAlign=middle;whiteSpace=wrap;rounded=0;" parent="1" vertex="1">
          <mxGeometry x="370" y="540" width="60" height="30" as="geometry" />
        </mxCell>
        <mxCell id="r781xFQi-C9u_piHX0SA-166" value="Н" style="text;html=1;strokeColor=none;fillColor=none;align=center;verticalAlign=middle;whiteSpace=wrap;rounded=0;" parent="1" vertex="1">
          <mxGeometry x="250" y="480" width="60" height="30" as="geometry" />
        </mxCell>
        <mxCell id="r781xFQi-C9u_piHX0SA-167" value="Н" style="text;html=1;strokeColor=none;fillColor=none;align=center;verticalAlign=middle;whiteSpace=wrap;rounded=0;" parent="1" vertex="1">
          <mxGeometry x="250" y="570" width="60" height="30" as="geometry" />
        </mxCell>
        <mxCell id="r781xFQi-C9u_piHX0SA-168" value="Н" style="text;html=1;strokeColor=none;fillColor=none;align=center;verticalAlign=middle;whiteSpace=wrap;rounded=0;" parent="1" vertex="1">
          <mxGeometry x="370" y="240" width="60" height="30" as="geometry" />
        </mxCell>
        <mxCell id="r781xFQi-C9u_piHX0SA-169" value="Н" style="text;html=1;strokeColor=none;fillColor=none;align=center;verticalAlign=middle;whiteSpace=wrap;rounded=0;" parent="1" vertex="1">
          <mxGeometry x="867" y="540" width="60" height="30" as="geometry" />
        </mxCell>
        <mxCell id="r781xFQi-C9u_piHX0SA-170" value="Н" style="text;html=1;strokeColor=none;fillColor=none;align=center;verticalAlign=middle;whiteSpace=wrap;rounded=0;" parent="1" vertex="1">
          <mxGeometry x="370" y="900" width="60" height="30" as="geometry" />
        </mxCell>
        <mxCell id="r781xFQi-C9u_piHX0SA-171" value="О" style="text;html=1;strokeColor=none;fillColor=none;align=center;verticalAlign=middle;whiteSpace=wrap;rounded=0;" parent="1" vertex="1">
          <mxGeometry x="1190" y="540" width="60" height="30" as="geometry" />
        </mxCell>
        <mxCell id="r781xFQi-C9u_piHX0SA-172" value="О" style="text;html=1;strokeColor=none;fillColor=none;align=center;verticalAlign=middle;whiteSpace=wrap;rounded=0;" parent="1" vertex="1">
          <mxGeometry x="1310" y="570" width="60" height="30" as="geometry" />
        </mxCell>
        <mxCell id="r781xFQi-C9u_piHX0SA-173" value="О" style="text;html=1;strokeColor=none;fillColor=none;align=center;verticalAlign=middle;whiteSpace=wrap;rounded=0;" parent="1" vertex="1">
          <mxGeometry x="1310" y="480" width="60" height="30" as="geometry" />
        </mxCell>
        <mxCell id="aI-FNXDE5qOkiZWEsAcc-2" value="Тип недели" style="ellipse;whiteSpace=wrap;html=1;" parent="1" vertex="1">
          <mxGeometry x="40" y="310" width="120" height="60" as="geometry" />
        </mxCell>
        <mxCell id="aI-FNXDE5qOkiZWEsAcc-3" value="" style="endArrow=none;html=1;rounded=0;exitX=1;exitY=0.5;exitDx=0;exitDy=0;" parent="1" source="aI-FNXDE5qOkiZWEsAcc-2" edge="1">
          <mxGeometry width="50" height="50" relative="1" as="geometry">
            <mxPoint x="320" y="270" as="sourcePoint" />
            <mxPoint x="190" y="340" as="targetPoint" />
          </mxGeometry>
        </mxCell>
        <mxCell id="hOCbavzWkbvk_ivOp2L--3" value="Кафедра" style="ellipse;whiteSpace=wrap;html=1;" vertex="1" parent="1">
          <mxGeometry x="40" y="230" width="120" height="60" as="geometry" />
        </mxCell>
        <mxCell id="hOCbavzWkbvk_ivOp2L--4" value="" style="endArrow=none;html=1;rounded=0;exitX=1;exitY=0.5;exitDx=0;exitDy=0;" edge="1" parent="1" source="hOCbavzWkbvk_ivOp2L--3">
          <mxGeometry width="50" height="50" relative="1" as="geometry">
            <mxPoint x="170" y="350" as="sourcePoint" />
            <mxPoint x="190" y="260" as="targetPoint" />
          </mxGeometry>
        </mxCell>
      </root>
    </mxGraphModel>
  </diagram>
</mxfile>
